<svg width="20" height="20" viewBox="0 0 20 20" fill="none" xmlns="http://www.w3.org/2000/svg">
<path d="M9.99992 11.3793C10.7617 11.3793 11.3792 10.7618 11.3792 10C11.3792 9.23823 10.7617 8.62069 9.99992 8.62069C9.23814 8.62069 8.62061 9.23823 8.62061 10C8.62061 10.7618 9.23814 11.3793 9.99992 11.3793Z" fill="#00DA9D"/>
<path d="M5.86198 11.3793C6.62375 11.3793 7.24129 10.7618 7.24129 10C7.24129 9.23823 6.62375 8.62069 5.86198 8.62069C5.1002 8.62069 4.48267 9.23823 4.48267 10C4.48267 10.7618 5.1002 11.3793 5.86198 11.3793Z" fill="#00DA9D"/>
<path d="M14.1379 11.3793C14.8996 11.3793 15.5172 10.7618 15.5172 10C15.5172 9.23823 14.8996 8.62069 14.1379 8.62069C13.3761 8.62069 12.7585 9.23823 12.7585 10C12.7585 10.7618 13.3761 11.3793 14.1379 11.3793Z" fill="#00DA9D"/>
</svg>
